<svg width="59" height="59" viewBox="0 0 59 59" fill="none" xmlns="http://www.w3.org/2000/svg">
<path d="M30.8886 15.7295H28.1172C27.8637 15.7295 27.6562 15.9369 27.6562 16.1904V32.0524C27.6562 32.2023 27.7254 32.3405 27.8464 32.427L37.3705 39.3814C37.5779 39.5312 37.866 39.4908 38.0158 39.2834L39.6637 37.0363C39.8192 36.8232 39.7731 36.5351 39.5657 36.391L31.3495 30.4507V16.1904C31.3495 15.9369 31.1421 15.7295 30.8886 15.7295ZM43.5528 20.0623L52.5872 22.2691C52.8753 22.3382 53.1576 22.1192 53.1576 21.8254L53.2037 12.5202C53.2037 12.1342 52.7601 11.9152 52.4604 12.1572L43.38 19.2499C43.3114 19.303 43.2591 19.3744 43.2292 19.4558C43.1994 19.5373 43.1931 19.6256 43.2112 19.7104C43.2292 19.7953 43.2709 19.8733 43.3313 19.9356C43.3918 19.9978 43.4685 20.0418 43.5528 20.0623V20.0623ZM53.2152 37.4108L49.9483 36.2873C49.8344 36.2483 49.7098 36.2553 49.601 36.307C49.4923 36.3587 49.4081 36.4509 49.3664 36.5639C49.2569 36.8577 49.1417 37.1458 49.0207 37.4339C47.9951 39.8596 46.5259 42.0433 44.6476 43.9158C42.7901 45.7791 40.5888 47.2642 38.1656 48.289C35.6554 49.3503 32.9571 49.895 30.2317 49.8907C27.4776 49.8907 24.81 49.3549 22.2978 48.289C19.8747 47.2642 17.6734 45.7791 15.8159 43.9158C13.9434 42.0433 12.4741 39.8596 11.4428 37.4339C10.3873 34.9223 9.84657 32.2244 9.85254 29.5C9.85254 26.7459 10.3884 24.0725 11.4543 21.5604C12.4799 19.1347 13.9491 16.951 15.8274 15.0784C17.6849 13.2152 19.8862 11.73 22.3094 10.7053C24.81 9.63936 27.4834 9.10352 30.2375 9.10352C32.9916 9.10352 35.6593 9.63936 38.1714 10.7053C40.5945 11.73 42.7959 13.2152 44.6533 15.0784C45.241 15.6719 45.7941 16.2884 46.3012 16.9395L49.7467 14.243C45.2122 8.44669 38.1541 4.71885 30.226 4.72462C16.4209 4.73038 5.33535 15.9427 5.47363 29.7535C5.61191 43.3224 16.6456 54.2754 30.2375 54.2754C40.9255 54.2754 50.029 47.4996 53.4976 38.0101C53.584 37.7681 53.4572 37.4973 53.2152 37.4108V37.4108Z" fill="black"/>
</svg>
